<svg version="1.1" id="Layer_1" xmlns="http://www.w3.org/2000/svg" xmlns:xlink="http://www.w3.org/1999/xlink" x="0px" y="0px"
	 width="100%" viewBox="0 0 1200 1200" enable-background="new 0 0 1200 1200" xml:space="preserve">
<path fill="#F5F5F5" opacity="1.000000" stroke="none" 
	d="
M831.000000,1201.000000 
	C554.000000,1201.000000 277.500000,1201.000000 1.000000,1201.000000 
	C1.000000,801.000000 1.000000,401.000000 1.000000,1.000000 
	C401.000000,1.000000 801.000000,1.000000 1201.000000,1.000000 
	C1201.000000,401.000000 1201.000000,801.000000 1201.000000,1201.000000 
	C1077.833374,1201.000000 954.666687,1201.000000 831.000000,1201.000000 
M751.214233,605.774963 
	C751.142822,603.614319 751.009033,601.453674 751.008850,599.293030 
	C750.998901,467.150970 751.000000,335.008942 751.000000,202.866882 
	C751.000000,200.748932 751.000000,198.630997 751.000000,196.340729 
	C650.767273,196.340729 551.072571,196.340729 451.395630,196.340729 
	C451.395630,381.365112 451.395630,566.048706 451.395630,750.709473 
	C551.368347,750.709473 650.945374,750.709473 751.072998,750.709473 
	C751.072998,724.635925 751.072998,698.850037 751.804565,673.118164 
	C768.124573,680.879700 787.107849,677.062012 796.762817,663.886353 
	C793.755615,660.522095 790.711365,657.116455 787.641724,653.682312 
	C780.818481,660.940430 772.955566,663.516968 763.901245,660.503967 
	C757.331482,658.317810 754.353394,652.901001 752.950684,645.781006 
	C768.313904,645.781006 783.217590,645.781006 798.072449,645.781006 
	C800.452332,611.794373 778.856262,593.802856 751.214233,605.774963 
M517.500000,766.000000 
	C495.417969,766.000000 473.335907,766.000000 451.311401,766.000000 
	C451.311401,786.387268 451.311401,805.977356 451.311401,825.602234 
	C551.328064,825.602234 651.032776,825.602234 750.688721,825.602234 
	C750.688721,805.612793 750.688721,786.022705 750.688721,766.000000 
	C673.085449,766.000000 595.792725,766.000000 517.500000,766.000000 
M732.499512,886.000000 
	C738.587646,886.000000 744.675781,886.000000 750.687866,886.000000 
	C750.687866,870.610718 750.687866,856.020203 750.687866,841.398315 
	C650.670654,841.398315 550.966003,841.398315 451.312134,841.398315 
	C451.312134,856.388855 451.312134,870.979004 451.312134,886.000000 
	C544.915649,886.000000 638.207642,886.000000 732.499512,886.000000 
M742.449097,931.000000 
	C745.207764,931.000000 747.966431,931.000000 750.705078,931.000000 
	C750.705078,920.644897 750.705078,911.054077 750.705078,901.382690 
	C650.704102,901.382690 550.998535,901.382690 451.296906,901.382690 
	C451.296906,911.359009 451.296906,920.949951 451.296906,931.000000 
	C548.215454,931.000000 644.837830,931.000000 742.449097,931.000000 
M742.449097,961.000000 
	C745.208069,961.000000 747.967041,961.000000 750.705322,961.000000 
	C750.705322,955.644409 750.705322,951.052307 750.705322,946.382080 
	C650.704102,946.382080 550.997925,946.382080 451.296631,946.382080 
	C451.296631,951.359619 451.296631,955.951782 451.296631,961.000000 
	C548.215088,961.000000 644.837646,961.000000 742.449097,961.000000 
M816.998779,618.524780 
	C810.998291,631.397766 811.030945,644.718384 815.430603,657.804260 
	C819.902039,671.103760 830.640259,678.211060 843.588257,676.786865 
	C848.615906,676.233948 853.413025,673.585693 858.220825,671.924438 
	C859.231323,678.681030 857.205017,684.272888 851.559143,686.972107 
	C841.568787,691.748596 832.978027,688.537109 825.210327,681.138672 
	C822.432861,684.996887 819.744324,688.731689 817.098450,692.407104 
	C825.152893,702.733093 842.728821,706.959045 856.956238,702.158508 
	C870.955139,697.435181 877.815002,687.826721 877.877014,672.443970 
	C877.962219,651.304993 877.904114,630.165466 877.883606,609.026184 
	C877.882385,607.759399 877.670166,606.492859 877.535400,604.996399 
	C874.057861,604.996399 870.899780,605.148376 867.762146,604.959656 
	C863.401428,604.697449 859.055176,604.178406 859.667786,611.213440 
	C848.028870,598.136536 825.299927,601.040771 816.998779,618.524780 
M370.646484,673.301697 
	C380.056946,670.274719 387.275146,664.477356 392.179260,655.921692 
	C400.620178,641.195801 400.955963,625.531738 396.384674,609.742859 
	C392.220093,595.358765 382.822296,584.756287 367.944183,582.139343 
	C354.227386,579.726868 340.025513,580.072327 326.026031,579.202271 
	C326.026031,612.306458 326.026031,643.994202 326.026031,676.001038 
	C332.175995,676.001038 337.995483,676.282227 343.777283,675.935303 
	C352.510681,675.411316 361.217804,674.449219 370.646484,673.301697 
M419.101501,664.478394 
	C419.101501,668.238159 419.101501,671.997864 419.101501,675.709961 
	C425.883850,675.709961 431.962128,675.709961 438.062408,675.709961 
	C438.062408,652.026062 438.062408,628.637451 438.062408,605.306580 
	C431.630280,605.306580 425.545197,605.306580 419.101532,605.306580 
	C419.101532,624.904968 419.101532,644.195496 419.101501,664.478394 
M437.487671,580.103149 
	C432.857117,575.905151 428.058136,575.127014 423.073456,577.791138 
	C419.053925,579.939392 417.682861,583.519897 418.320343,587.750366 
	C418.940247,591.864624 421.507019,594.524414 425.634491,595.564880 
	C429.969269,596.657654 434.064301,595.985779 437.051605,592.694214 
	C440.270020,589.147949 440.129913,584.890137 437.487671,580.103149 
z"/>
<path fill="#3FC1C9" opacity="1.000000" stroke="none" 
	d="
M751.072998,673.064148 
	C751.072998,698.850037 751.072998,724.635925 751.072998,750.709473 
	C650.945374,750.709473 551.368347,750.709473 451.395630,750.709473 
	C451.395630,566.048706 451.395630,381.365112 451.395630,196.340729 
	C551.072571,196.340729 650.767273,196.340729 751.000000,196.340729 
	C751.000000,198.630997 751.000000,200.748932 751.000000,202.866882 
	C751.000000,335.008942 750.998901,467.150970 751.008850,599.293030 
	C751.009033,601.453674 751.142822,603.614319 751.221436,606.346008 
	C749.319946,608.214111 747.185425,609.274109 745.537170,610.844421 
	C727.325928,628.194824 730.088318,658.860779 751.072998,673.064148 
M551.350952,400.956696 
	C560.952942,400.672180 567.155945,394.820862 573.467468,388.388580 
	C595.755737,365.673950 618.392273,343.300995 640.890625,320.792328 
	C642.170410,319.511963 643.396301,318.177582 644.490173,317.032745 
	C634.632629,307.075531 624.980164,297.325409 615.275330,287.522461 
	C614.885254,287.766174 614.400635,287.958130 614.062073,288.296295 
	C587.773132,314.554565 561.489868,340.818573 535.241943,367.117859 
	C534.339294,368.022247 533.396179,369.206268 533.152710,370.398956 
	C530.776245,382.042633 528.544861,393.715942 526.178589,405.860931 
	C534.637390,404.177917 542.569519,402.599670 551.350952,400.956696 
M681.783813,642.383362 
	C686.945129,652.436768 692.063171,662.512939 697.319458,672.516479 
	C698.020142,673.849915 699.375122,675.741394 700.505676,675.797668 
	C706.879700,676.115356 713.277771,675.951050 720.691895,675.951050 
	C713.415588,662.140747 706.653564,649.306458 699.859863,636.412231 
	C701.066040,635.481445 701.769531,634.734863 702.630920,634.304565 
	C714.150879,628.550110 718.703003,615.772217 715.878906,601.330811 
	C713.866699,591.041504 703.926514,582.137695 691.949219,581.136047 
	C680.215881,580.154724 668.386292,580.309753 656.597778,580.012573 
	C653.167175,579.926086 649.732605,579.999329 646.325500,579.999329 
	C646.325500,612.389771 646.325500,644.046997 646.325500,675.687744 
	C652.724304,675.687744 658.648010,675.687744 665.283447,675.687744 
	C665.283447,664.027344 665.283447,652.659607 665.283447,640.647644 
	C671.107422,641.049866 676.183350,641.400452 681.783813,642.383362 
M494.199646,688.070740 
	C484.980377,690.743652 477.157593,688.312805 470.370728,681.070129 
	C467.492462,685.057922 464.812073,688.771545 461.921844,692.775940 
	C471.624268,702.300781 482.842072,705.325073 495.857971,703.339783 
	C508.233734,701.452148 517.521606,695.740173 521.218994,683.328125 
	C522.566528,678.804382 522.815613,673.833679 522.854919,669.060974 
	C523.014832,649.597412 522.906311,630.131531 522.873962,610.666504 
	C522.871033,608.899536 522.705750,607.132812 522.609680,605.244873 
	C516.646057,605.244873 511.213379,605.244873 505.637390,605.244873 
	C505.206940,606.943115 504.827820,608.438904 504.370789,610.242065 
	C503.406952,609.598389 502.851227,609.278076 502.351532,608.886169 
	C491.158905,600.108826 477.454132,601.356140 467.104919,611.006531 
	C456.425568,620.964783 454.994324,649.406067 462.497894,662.362305 
	C468.327057,672.427307 476.681824,677.954285 488.229889,676.776611 
	C493.537506,676.235352 498.603302,673.323059 503.928375,671.432861 
	C503.553528,678.045654 502.562805,684.643494 494.199646,688.070740 
M636.911194,265.381226 
	C632.314392,269.642395 627.717590,273.903534 623.751282,277.580231 
	C634.429626,288.129974 644.163452,297.746490 654.170227,307.632751 
	C660.053894,301.712830 666.530579,295.275726 672.913086,288.746552 
	C677.146484,284.415802 677.081909,280.612701 672.789368,276.219055 
	C668.035217,271.352936 663.188538,266.577271 658.422119,261.722931 
	C650.890381,254.052322 647.298828,254.041046 639.917114,261.788757 
	C639.005432,262.745697 638.229065,263.831512 636.911194,265.381226 
M593.407959,296.913666 
	C604.095764,288.343445 610.946167,275.653320 624.306213,269.706726 
	C629.661011,267.323303 633.468384,261.463287 637.980103,257.185699 
	C630.885620,255.995392 624.608398,256.219116 618.357056,255.914474 
	C614.380920,255.720718 611.551758,256.917084 608.750000,259.795959 
	C598.431946,270.397919 587.882507,280.776581 577.306152,291.122772 
	C575.991211,292.409088 574.090088,293.357452 572.293274,293.841553 
	C566.553772,295.387939 563.728821,298.961090 563.855347,305.061920 
	C563.970154,310.598785 567.499756,314.756622 573.011353,315.847626 
	C577.686523,316.773071 583.643982,313.963226 584.880859,308.964783 
	C586.153076,303.823029 589.614197,300.820587 593.407959,296.913666 
M563.135803,673.261963 
	C563.135803,650.706848 563.135803,628.151672 563.135803,605.419434 
	C556.529480,605.419434 550.523193,605.419434 544.448975,605.419434 
	C544.448975,629.036865 544.448975,652.230469 544.448975,675.958496 
	C550.190613,675.958496 555.629150,676.020203 561.062622,675.881042 
	C561.748962,675.863464 562.408264,674.791260 563.135803,673.261963 
M592.572754,642.144897 
	C602.306580,642.144897 612.040405,642.144897 621.810486,642.144897 
	C621.810486,636.683472 621.810486,632.109741 621.810486,627.448730 
	C609.467834,627.448730 597.464539,627.448730 585.396484,627.448730 
	C585.396484,632.481750 585.396484,637.061401 585.396484,642.145203 
	C587.683167,642.145203 589.639282,642.145203 592.572754,642.144897 
M562.947815,580.728699 
	C561.851135,579.742676 560.883728,578.532837 559.634277,577.811462 
	C555.436157,575.388062 549.769897,575.807129 546.596619,578.781128 
	C543.586365,581.602356 542.214539,585.103516 543.629456,589.149719 
	C545.159241,593.524475 548.495605,595.752563 553.085388,595.977966 
	C561.757690,596.403809 566.039185,590.247437 562.947815,580.728699 
z"/>
<path fill="#3FC1C9" opacity="1.000000" stroke="none" 
	d="
M518.000000,766.000000 
	C595.792725,766.000000 673.085449,766.000000 750.688721,766.000000 
	C750.688721,786.022705 750.688721,805.612793 750.688721,825.602234 
	C651.032776,825.602234 551.328064,825.602234 451.311401,825.602234 
	C451.311401,805.977356 451.311401,786.387268 451.311401,766.000000 
	C473.335907,766.000000 495.417969,766.000000 518.000000,766.000000 
z"/>
<path fill="#3FC1C9" opacity="1.000000" stroke="none" 
	d="
M731.999573,886.000000 
	C638.207642,886.000000 544.915649,886.000000 451.312134,886.000000 
	C451.312134,870.979004 451.312134,856.388855 451.312134,841.398315 
	C550.966003,841.398315 650.670654,841.398315 750.687866,841.398315 
	C750.687866,856.020203 750.687866,870.610718 750.687866,886.000000 
	C744.675781,886.000000 738.587646,886.000000 731.999573,886.000000 
z"/>
<path fill="#3FC1C9" opacity="1.000000" stroke="none" 
	d="
M741.954651,931.000000 
	C644.837830,931.000000 548.215454,931.000000 451.296906,931.000000 
	C451.296906,920.949951 451.296906,911.359009 451.296906,901.382690 
	C550.998535,901.382690 650.704102,901.382690 750.705078,901.382690 
	C750.705078,911.054077 750.705078,920.644897 750.705078,931.000000 
	C747.966431,931.000000 745.207764,931.000000 741.954651,931.000000 
z"/>
<path fill="#3FC1C9" opacity="1.000000" stroke="none" 
	d="
M741.954651,961.000000 
	C644.837646,961.000000 548.215088,961.000000 451.296631,961.000000 
	C451.296631,955.951782 451.296631,951.359619 451.296631,946.382080 
	C550.997925,946.382080 650.704102,946.382080 750.705322,946.382080 
	C750.705322,951.052307 750.705322,955.644409 750.705322,961.000000 
	C747.967041,961.000000 745.208069,961.000000 741.954651,961.000000 
z"/>
<path fill="#37516C" opacity="1.000000" stroke="none" 
	d="
M817.162109,618.189697 
	C825.299927,601.040771 848.028870,598.136536 859.667786,611.213440 
	C859.055176,604.178406 863.401428,604.697449 867.762146,604.959656 
	C870.899780,605.148376 874.057861,604.996399 877.535400,604.996399 
	C877.670166,606.492859 877.882385,607.759399 877.883606,609.026184 
	C877.904114,630.165466 877.962219,651.304993 877.877014,672.443970 
	C877.815002,687.826721 870.955139,697.435181 856.956238,702.158508 
	C842.728821,706.959045 825.152893,702.733093 817.098450,692.407104 
	C819.744324,688.731689 822.432861,684.996887 825.210327,681.138672 
	C832.978027,688.537109 841.568787,691.748596 851.559143,686.972107 
	C857.205017,684.272888 859.231323,678.681030 858.220825,671.924438 
	C853.413025,673.585693 848.615906,676.233948 843.588257,676.786865 
	C830.640259,678.211060 819.902039,671.103760 815.430603,657.804260 
	C811.030945,644.718384 810.998291,631.397766 817.162109,618.189697 
M858.687805,630.760254 
	C858.947327,626.992310 858.673645,623.560913 855.076172,621.085327 
	C847.891479,616.141296 838.482788,617.989868 834.679443,625.799500 
	C830.428650,634.527832 830.575562,643.764038 833.746887,652.786804 
	C834.624390,655.283691 836.720825,657.705872 838.884949,659.323547 
	C843.434326,662.723938 848.619080,662.249695 853.513367,659.958252 
	C857.528198,658.078674 858.991211,654.687317 858.764526,650.166138 
	C858.456726,644.025574 858.687744,637.857971 858.687805,630.760254 
z"/>
<path fill="#36506B" opacity="1.000000" stroke="none" 
	d="
M370.291290,673.487549 
	C361.217804,674.449219 352.510681,675.411316 343.777283,675.935303 
	C337.995483,676.282227 332.175995,676.001038 326.026031,676.001038 
	C326.026031,643.994202 326.026031,612.306458 326.026031,579.202271 
	C340.025513,580.072327 354.227386,579.726868 367.944183,582.139343 
	C382.822296,584.756287 392.220093,595.358765 396.384674,609.742859 
	C400.955963,625.531738 400.620178,641.195801 392.179260,655.921692 
	C387.275146,664.477356 380.056946,670.274719 370.291290,673.487549 
M345.308350,644.495483 
	C345.308350,649.597168 345.308350,654.698853 345.308350,660.018555 
	C349.311096,660.018555 352.625732,660.085327 355.936890,660.006287 
	C366.599091,659.751709 374.680115,654.119324 376.919403,643.648315 
	C378.524139,636.144592 379.029816,628.168701 378.534790,620.499695 
	C377.294189,601.281494 364.776947,592.516357 345.308533,596.748108 
	C345.308533,612.274231 345.308533,627.885803 345.308350,644.495483 
z"/>
<path fill="#36506B" opacity="1.000000" stroke="none" 
	d="
M751.438782,673.091187 
	C730.088318,658.860779 727.325928,628.194824 745.537170,610.844421 
	C747.185425,609.274109 749.319946,608.214111 751.428101,606.745850 
	C778.856262,593.802856 800.452332,611.794373 798.072449,645.781006 
	C783.217590,645.781006 768.313904,645.781006 752.950684,645.781006 
	C754.353394,652.901001 757.331482,658.317810 763.901245,660.503967 
	C772.955566,663.516968 780.818481,660.940430 787.641724,653.682312 
	C790.711365,657.116455 793.755615,660.522095 796.762817,663.886353 
	C787.107849,677.062012 768.124573,680.879700 751.438782,673.091187 
M755.574585,625.259277 
	C754.777527,627.666504 753.980408,630.073730 753.133240,632.632080 
	C762.413757,632.632080 770.957153,632.632080 779.474243,632.632080 
	C779.732788,625.502136 777.378540,621.203491 772.419556,619.348877 
	C765.992676,616.945190 760.328796,618.757141 755.574585,625.259277 
z"/>
<path fill="#37516C" opacity="1.000000" stroke="none" 
	d="
M419.101501,663.982178 
	C419.101532,644.195496 419.101532,624.904968 419.101532,605.306580 
	C425.545197,605.306580 431.630280,605.306580 438.062408,605.306580 
	C438.062408,628.637451 438.062408,652.026062 438.062408,675.709961 
	C431.962128,675.709961 425.883850,675.709961 419.101501,675.709961 
	C419.101501,671.997864 419.101501,668.238159 419.101501,663.982178 
z"/>
<path fill="#37516C" opacity="1.000000" stroke="none" 
	d="
M437.716034,580.403687 
	C440.129913,584.890137 440.270020,589.147949 437.051605,592.694214 
	C434.064301,595.985779 429.969269,596.657654 425.634491,595.564880 
	C421.507019,594.524414 418.940247,591.864624 418.320343,587.750366 
	C417.682861,583.519897 419.053925,579.939392 423.073456,577.791138 
	C428.058136,575.127014 432.857117,575.905151 437.716034,580.403687 
z"/>
<path fill="#36506B" opacity="1.000000" stroke="none" 
	d="
M550.926331,400.989075 
	C542.569519,402.599670 534.637390,404.177917 526.178589,405.860931 
	C528.544861,393.715942 530.776245,382.042633 533.152710,370.398956 
	C533.396179,369.206268 534.339294,368.022247 535.241943,367.117859 
	C561.489868,340.818573 587.773132,314.554565 614.062073,288.296295 
	C614.400635,287.958130 614.885254,287.766174 615.275330,287.522461 
	C624.980164,297.325409 634.632629,307.075531 644.490173,317.032745 
	C643.396301,318.177582 642.170410,319.511963 640.890625,320.792328 
	C618.392273,343.300995 595.755737,365.673950 573.467468,388.388580 
	C567.155945,394.820862 560.952942,400.672180 550.926331,400.989075 
M550.950012,385.787415 
	C558.981018,384.745422 562.056824,377.666504 566.841675,373.557587 
	C564.047791,370.264893 561.628723,367.413940 558.986572,364.300110 
	C553.197449,371.061554 544.577393,375.135529 546.278992,385.905518 
	C547.560547,385.905518 548.836792,385.905518 550.950012,385.787415 
z"/>
<path fill="#36506B" opacity="1.000000" stroke="none" 
	d="
M681.521484,642.067139 
	C676.183350,641.400452 671.107422,641.049866 665.283447,640.647644 
	C665.283447,652.659607 665.283447,664.027344 665.283447,675.687744 
	C658.648010,675.687744 652.724304,675.687744 646.325500,675.687744 
	C646.325500,644.046997 646.325500,612.389771 646.325500,579.999329 
	C649.732605,579.999329 653.167175,579.926086 656.597778,580.012573 
	C668.386292,580.309753 680.215881,580.154724 691.949219,581.136047 
	C703.926514,582.137695 713.866699,591.041504 715.878906,601.330811 
	C718.703003,615.772217 714.150879,628.550110 702.630920,634.304565 
	C701.769531,634.734863 701.066040,635.481445 699.859863,636.412231 
	C706.653564,649.306458 713.415588,662.140747 720.691895,675.951050 
	C713.277771,675.951050 706.879700,676.115356 700.505676,675.797668 
	C699.375122,675.741394 698.020142,673.849915 697.319458,672.516479 
	C692.063171,662.512939 686.945129,652.436768 681.521484,642.067139 
M673.544678,625.004211 
	C676.863831,624.988220 680.199707,625.179932 683.498779,624.914551 
	C691.179504,624.296631 696.413574,619.185242 696.924255,612.095276 
	C697.523560,603.775024 693.671997,597.685486 685.680298,596.593140 
	C679.088989,595.692139 672.276428,596.409119 665.448730,596.409119 
	C665.448730,606.001770 665.448730,615.212402 665.448730,625.004150 
	C668.027161,625.004150 670.301453,625.004150 673.544678,625.004211 
z"/>
<path fill="#37516C" opacity="1.000000" stroke="none" 
	d="
M494.585632,687.965210 
	C502.562805,684.643494 503.553528,678.045654 503.928375,671.432861 
	C498.603302,673.323059 493.537506,676.235352 488.229889,676.776611 
	C476.681824,677.954285 468.327057,672.427307 462.497894,662.362305 
	C454.994324,649.406067 456.425568,620.964783 467.104919,611.006531 
	C477.454132,601.356140 491.158905,600.108826 502.351532,608.886169 
	C502.851227,609.278076 503.406952,609.598389 504.370789,610.242065 
	C504.827820,608.438904 505.206940,606.943115 505.637390,605.244873 
	C511.213379,605.244873 516.646057,605.244873 522.609680,605.244873 
	C522.705750,607.132812 522.871033,608.899536 522.873962,610.666504 
	C522.906311,630.131531 523.014832,649.597412 522.854919,669.060974 
	C522.815613,673.833679 522.566528,678.804382 521.218994,683.328125 
	C517.521606,695.740173 508.233734,701.452148 495.857971,703.339783 
	C482.842072,705.325073 471.624268,702.300781 461.921844,692.775940 
	C464.812073,688.771545 467.492462,685.057922 470.370728,681.070129 
	C477.157593,688.312805 484.980377,690.743652 494.585632,687.965210 
M503.859863,642.479919 
	C503.859283,637.650452 504.285950,632.766724 503.682312,628.013855 
	C503.368896,625.546265 501.787964,622.562195 499.821228,621.104858 
	C493.021820,616.066589 482.823730,618.472229 479.452484,626.138916 
	C475.418213,635.313660 475.306824,644.948669 479.577179,654.157593 
	C482.515442,660.493958 488.460144,662.753601 495.436066,661.007629 
	C501.854584,659.401245 503.859192,656.416321 503.859955,648.464050 
	C503.860107,646.798706 503.859711,645.133362 503.859863,642.479919 
z"/>
<path fill="#36506B" opacity="1.000000" stroke="none" 
	d="
M637.150574,265.119415 
	C638.229065,263.831512 639.005432,262.745697 639.917114,261.788757 
	C647.298828,254.041046 650.890381,254.052322 658.422119,261.722931 
	C663.188538,266.577271 668.035217,271.352936 672.789368,276.219055 
	C677.081909,280.612701 677.146484,284.415802 672.913086,288.746552 
	C666.530579,295.275726 660.053894,301.712830 654.170227,307.632751 
	C644.163452,297.746490 634.429626,288.129974 623.751282,277.580231 
	C627.717590,273.903534 632.314392,269.642395 637.150574,265.119415 
z"/>
<path fill="#37516C" opacity="1.000000" stroke="none" 
	d="
M593.157227,297.164307 
	C589.614197,300.820587 586.153076,303.823029 584.880859,308.964783 
	C583.643982,313.963226 577.686523,316.773071 573.011353,315.847626 
	C567.499756,314.756622 563.970154,310.598785 563.855347,305.061920 
	C563.728821,298.961090 566.553772,295.387939 572.293274,293.841553 
	C574.090088,293.357452 575.991211,292.409088 577.306152,291.122772 
	C587.882507,280.776581 598.431946,270.397919 608.750000,259.795959 
	C611.551758,256.917084 614.380920,255.720718 618.357056,255.914474 
	C624.608398,256.219116 630.885620,255.995392 637.980103,257.185699 
	C633.468384,261.463287 629.661011,267.323303 624.306213,269.706726 
	C610.946167,275.653320 604.095764,288.343445 593.157227,297.164307 
z"/>
<path fill="#37516C" opacity="1.000000" stroke="none" 
	d="
M563.107910,673.734741 
	C562.408264,674.791260 561.748962,675.863464 561.062622,675.881042 
	C555.629150,676.020203 550.190613,675.958496 544.448975,675.958496 
	C544.448975,652.230469 544.448975,629.036865 544.448975,605.419434 
	C550.523193,605.419434 556.529480,605.419434 563.135803,605.419434 
	C563.135803,628.151672 563.135803,650.706848 563.107910,673.734741 
z"/>
<path fill="#36506B" opacity="1.000000" stroke="none" 
	d="
M592.084106,642.145020 
	C589.639282,642.145203 587.683167,642.145203 585.396484,642.145203 
	C585.396484,637.061401 585.396484,632.481750 585.396484,627.448730 
	C597.464539,627.448730 609.467834,627.448730 621.810486,627.448730 
	C621.810486,632.109741 621.810486,636.683472 621.810486,642.144897 
	C612.040405,642.144897 602.306580,642.144897 592.084106,642.145020 
z"/>
<path fill="#37516C" opacity="1.000000" stroke="none" 
	d="
M563.106384,581.076294 
	C566.039185,590.247437 561.757690,596.403809 553.085388,595.977966 
	C548.495605,595.752563 545.159241,593.524475 543.629456,589.149719 
	C542.214539,585.103516 543.586365,581.602356 546.596619,578.781128 
	C549.769897,575.807129 555.436157,575.388062 559.634277,577.811462 
	C560.883728,578.532837 561.851135,579.742676 563.106384,581.076294 
z"/>
<path fill="#F1F1F2" opacity="1.000000" stroke="none" 
	d="
M858.687744,631.231079 
	C858.687744,637.857971 858.456726,644.025574 858.764526,650.166138 
	C858.991211,654.687317 857.528198,658.078674 853.513367,659.958252 
	C848.619080,662.249695 843.434326,662.723938 838.884949,659.323547 
	C836.720825,657.705872 834.624390,655.283691 833.746887,652.786804 
	C830.575562,643.764038 830.428650,634.527832 834.679443,625.799500 
	C838.482788,617.989868 847.891479,616.141296 855.076172,621.085327 
	C858.673645,623.560913 858.947327,626.992310 858.687744,631.231079 
z"/>
<path fill="#F1F1F2" opacity="1.000000" stroke="none" 
	d="
M345.308441,643.996460 
	C345.308533,627.885803 345.308533,612.274231 345.308533,596.748108 
	C364.776947,592.516357 377.294189,601.281494 378.534790,620.499695 
	C379.029816,628.168701 378.524139,636.144592 376.919403,643.648315 
	C374.680115,654.119324 366.599091,659.751709 355.936890,660.006287 
	C352.625732,660.085327 349.311096,660.018555 345.308350,660.018555 
	C345.308350,654.698853 345.308350,649.597168 345.308441,643.996460 
z"/>
<path fill="#F1F1F2" opacity="1.000000" stroke="none" 
	d="
M755.766663,624.937012 
	C760.328796,618.757141 765.992676,616.945190 772.419556,619.348877 
	C777.378540,621.203491 779.732788,625.502136 779.474243,632.632080 
	C770.957153,632.632080 762.413757,632.632080 753.133240,632.632080 
	C753.980408,630.073730 754.777527,627.666504 755.766663,624.937012 
z"/>
<path fill="#3FBFC7" opacity="1.000000" stroke="none" 
	d="
M550.531494,385.846466 
	C548.836792,385.905518 547.560547,385.905518 546.278992,385.905518 
	C544.577393,375.135529 553.197449,371.061554 558.986572,364.300110 
	C561.628723,367.413940 564.047791,370.264893 566.841675,373.557587 
	C562.056824,377.666504 558.981018,384.745422 550.531494,385.846466 
z"/>
<path fill="#3FBFC7" opacity="1.000000" stroke="none" 
	d="
M673.060242,625.004150 
	C670.301453,625.004150 668.027161,625.004150 665.448730,625.004150 
	C665.448730,615.212402 665.448730,606.001770 665.448730,596.409119 
	C672.276428,596.409119 679.088989,595.692139 685.680298,596.593140 
	C693.671997,597.685486 697.523560,603.775024 696.924255,612.095276 
	C696.413574,619.185242 691.179504,624.296631 683.498779,624.914551 
	C680.199707,625.179932 676.863831,624.988220 673.060242,625.004150 
z"/>
<path fill="#3FBFC7" opacity="1.000000" stroke="none" 
	d="
M503.859711,642.973999 
	C503.859711,645.133362 503.860107,646.798706 503.859955,648.464050 
	C503.859192,656.416321 501.854584,659.401245 495.436066,661.007629 
	C488.460144,662.753601 482.515442,660.493958 479.577179,654.157593 
	C475.306824,644.948669 475.418213,635.313660 479.452484,626.138916 
	C482.823730,618.472229 493.021820,616.066589 499.821228,621.104858 
	C501.787964,622.562195 503.368896,625.546265 503.682312,628.013855 
	C504.285950,632.766724 503.859283,637.650452 503.859711,642.973999 
z"/>
</svg>